<?xml version="1.0" encoding="UTF-8"?>
<!DOCTYPE svg PUBLIC "-//W3C//DTD SVG 1.1//EN" "http://www.w3.org/Graphics/SVG/1.1/DTD/svg11.dtd">
<svg xmlns="http://www.w3.org/2000/svg" version="1.1" width="418px" height="597px" style="shape-rendering:geometricPrecision; text-rendering:geometricPrecision; image-rendering:optimizeQuality; fill-rule:evenodd; clip-rule:evenodd" xmlns:xlink="http://www.w3.org/1999/xlink">
<g><path style="opacity:0.991" fill="#56b7dc" d="M 274.5,64.5 C 274.5,64.8333 274.5,65.1667 274.5,65.5C 273.209,65.2627 272.209,65.596 271.5,66.5C 253.939,62.4208 236.105,60.4208 218,60.5C 199.984,60.6126 183.151,64.9459 167.5,73.5C 167.631,72.6236 167.298,71.9569 166.5,71.5C 162.809,72.5094 159.143,73.5094 155.5,74.5C 156.987,73.1964 158.654,72.0298 160.5,71C 166.571,68.7014 172.571,66.5347 178.5,64.5C 210.599,56.5188 242.599,56.5188 274.5,64.5 Z"/></g>
<g><path style="opacity:0.2" fill="#cbeeef" d="M 274.5,65.5 C 274.5,65.1667 274.5,64.8333 274.5,64.5C 279.17,64.5111 283.503,65.5111 287.5,67.5C 287.167,67.5 286.833,67.5 286.5,67.5C 282.5,66.8333 278.5,66.1667 274.5,65.5 Z"/></g>
<g><path style="opacity:1" fill="#27c4d9" d="M 271.5,66.5 C 275.262,68.6251 279.262,70.4585 283.5,72C 286.529,74.1761 289.529,76.3427 292.5,78.5C 293.172,79.2674 294.005,79.9341 295,80.5C 296.766,84.3709 298.266,88.3709 299.5,92.5C 298.079,109.675 296.413,126.675 294.5,143.5C 292.68,141.552 290.346,140.552 287.5,140.5C 287.167,140.5 286.833,140.5 286.5,140.5C 284.123,139.113 281.457,138.279 278.5,138C 252.84,133.573 227.173,132.406 201.5,134.5C 187.553,135.491 173.886,137.991 160.5,142C 159.748,142.671 159.414,143.504 159.5,144.5C 158.833,144.833 158.167,145.167 157.5,145.5C 157.995,143.548 158.328,141.548 158.5,139.5C 156.088,121.57 155.254,103.57 156,85.5C 158.691,80.3111 162.524,76.3111 167.5,73.5C 183.151,64.9459 199.984,60.6126 218,60.5C 236.105,60.4208 253.939,62.4208 271.5,66.5 Z"/></g>
<g><path style="opacity:0.478" fill="#cde9e4" d="M 178.5,64.5 C 172.571,66.5347 166.571,68.7014 160.5,71C 158.654,72.0298 156.987,73.1964 155.5,74.5C 151.584,76.4135 148.251,79.0801 145.5,82.5C 146.581,80.236 147.915,78.0693 149.5,76C 158.02,69.3257 167.686,65.4924 178.5,64.5 Z"/></g>
<g><path style="opacity:0.851" fill="#c7d09f" d="M 286.5,67.5 C 286.833,67.5 287.167,67.5 287.5,67.5C 294.89,69.1116 301.39,72.4449 307,77.5C 307.608,79.1545 308.108,80.8211 308.5,82.5C 304.779,79.1101 300.779,76.1101 296.5,73.5C 292.949,71.9397 289.616,69.9397 286.5,67.5 Z"/></g>
<g><path style="opacity:1" fill="#25a6dc" d="M 274.5,65.5 C 278.5,66.1667 282.5,66.8333 286.5,67.5C 289.616,69.9397 292.949,71.9397 296.5,73.5C 293.09,73.3838 291.756,75.0504 292.5,78.5C 289.529,76.3427 286.529,74.1761 283.5,72C 279.262,70.4585 275.262,68.6251 271.5,66.5C 272.209,65.596 273.209,65.2627 274.5,65.5 Z"/></g>
<g><path style="opacity:1" fill="#04294b" d="M 313.5,89.5 C 313.2,94.0986 313.533,98.5986 314.5,103C 313.934,103.995 313.267,104.828 312.5,105.5C 312.179,99.9738 312.512,94.6405 313.5,89.5 Z"/></g>
<g><path style="opacity:1" fill="#2b98ce" d="M 310.5,86.5 C 311.833,87.1667 312.833,88.1667 313.5,89.5C 312.512,94.6405 312.179,99.9738 312.5,105.5C 311.699,107.042 311.366,108.708 311.5,110.5C 310.698,111.952 310.198,113.618 310,115.5C 309.5,127.162 309.333,138.829 309.5,150.5C 307.5,150.167 305.5,149.833 303.5,149.5C 304.919,148.549 306.585,148.216 308.5,148.5C 308.043,144.185 307.709,139.851 307.5,135.5C 309.162,119.201 310.162,102.867 310.5,86.5 Z"/></g>
<g><path style="opacity:0.949" fill="#0f1013" d="M 313.5,89.5 C 315.489,110.14 316.155,131.14 315.5,152.5C 320.731,152.37 325.231,154.037 329,157.5C 329.49,158.793 329.657,160.127 329.5,161.5C 327.958,162.301 326.292,162.634 324.5,162.5C 320.803,161.992 317.136,161.326 313.5,160.5C 312.791,159.596 311.791,159.263 310.5,159.5C 307.545,158.841 304.545,158.508 301.5,158.5C 301.171,155.772 301.837,153.438 303.5,151.5C 305.39,151.297 306.89,151.963 308,153.5C 308.414,153.043 308.914,152.709 309.5,152.5C 310.348,138.504 311.015,124.504 311.5,110.5C 311.366,108.708 311.699,107.042 312.5,105.5C 313.267,104.828 313.934,103.995 314.5,103C 313.533,98.5986 313.2,94.0986 313.5,89.5 Z"/></g>
<g><path style="opacity:1" fill="#1ea7ea" d="M 296.5,73.5 C 300.779,76.1101 304.779,79.1101 308.5,82.5C 309.674,83.5137 310.34,84.847 310.5,86.5C 310.162,102.867 309.162,119.201 307.5,135.5C 307.709,139.851 308.043,144.185 308.5,148.5C 306.585,148.216 304.919,148.549 303.5,149.5C 303.5,150.167 303.5,150.833 303.5,151.5C 301.837,153.438 301.171,155.772 301.5,158.5C 304.545,158.508 307.545,158.841 310.5,159.5C 310.5,163.167 310.5,166.833 310.5,170.5C 310.573,189.509 310.24,208.509 309.5,227.5C 305.916,227.975 302.583,228.975 299.5,230.5C 297.139,230.674 294.806,231.007 292.5,231.5C 292.918,230.778 293.584,230.278 294.5,230C 292.833,229.667 291.167,229.333 289.5,229C 294.696,227.331 300.03,226.165 305.5,225.5C 307.986,203.906 308.986,182.24 308.5,160.5C 304.946,160.15 301.612,160.816 298.5,162.5C 297.485,159.832 295.818,159.166 293.5,160.5C 295.829,161.771 296.995,163.771 297,166.5C 303.197,164.142 305.864,166.142 305,172.5C 304.586,172.043 304.086,171.709 303.5,171.5C 302.886,187.523 302.053,203.523 301,219.5C 299.143,220.167 297.643,219.5 296.5,217.5C 294.179,217.229 292.179,217.896 290.5,219.5C 287.513,217.202 286.846,214.368 288.5,211C 286.639,205.015 285.973,198.848 286.5,192.5C 284.857,192.52 283.524,191.853 282.5,190.5C 281.393,191.022 280.226,191.355 279,191.5C 269.278,190.884 259.612,190.217 250,189.5C 248.365,190.849 246.865,190.682 245.5,189C 232.838,188.5 220.171,188.333 207.5,188.5C 204.375,187.521 201.042,187.187 197.5,187.5C 222.03,186.212 246.697,186.546 271.5,188.5C 273.134,189.161 274.967,189.494 277,189.5C 279.917,189.665 282.583,188.998 285,187.5C 288.275,172.845 291.442,158.178 294.5,143.5C 296.413,126.675 298.079,109.675 299.5,92.5C 298.266,88.3709 296.766,84.3709 295,80.5C 294.005,79.9341 293.172,79.2674 292.5,78.5C 291.756,75.0504 293.09,73.3838 296.5,73.5 Z"/></g>
<g><path style="opacity:0.985" fill="#080b10" d="M 140.5,89.5 C 141.43,102.023 142.43,114.689 143.5,127.5C 143.5,135.167 143.5,142.833 143.5,150.5C 145.621,150.325 147.621,150.659 149.5,151.5C 150.605,153.713 150.605,155.88 149.5,158C 145.688,158.795 142.021,159.629 138.5,160.5C 133.4,161.025 128.4,162.025 123.5,163.5C 123.055,160.635 123.722,158.135 125.5,156C 129.599,153.91 133.933,152.744 138.5,152.5C 138.333,131.831 138.5,111.164 139,90.5C 139.383,89.944 139.883,89.6107 140.5,89.5 Z"/></g>
<g><path style="opacity:1" fill="#1f99d6" d="M 155.5,74.5 C 154.521,76.1454 153.188,77.4787 151.5,78.5C 150.571,79.6888 150.238,81.0222 150.5,82.5C 148.61,82.2965 147.11,82.9632 146,84.5C 143.931,88.9274 142.764,93.594 142.5,98.5C 143.653,110.071 145.32,121.571 147.5,133C 146.56,138.14 145.893,143.306 145.5,148.5C 147.099,148.232 148.432,148.566 149.5,149.5C 147.833,149.5 146.167,149.5 144.5,149.5C 144.825,141.981 144.492,134.648 143.5,127.5C 142.43,114.689 141.43,102.023 140.5,89.5C 141.853,88.4739 142.853,87.1405 143.5,85.5C 143.427,83.9731 144.094,82.9731 145.5,82.5C 148.251,79.0801 151.584,76.4135 155.5,74.5 Z"/></g>
<g><path style="opacity:1" fill="#052c33" d="M 201.5,134.5 C 227.173,132.406 252.84,133.573 278.5,138C 281.457,138.279 284.123,139.113 286.5,140.5C 272.734,139.232 259.067,137.399 245.5,135C 230.837,134.5 216.17,134.333 201.5,134.5 Z"/></g>
<g><path style="opacity:1" fill="#043962" d="M 143.5,127.5 C 144.492,134.648 144.825,141.981 144.5,149.5C 146.167,149.5 147.833,149.5 149.5,149.5C 149.5,150.167 149.5,150.833 149.5,151.5C 147.621,150.659 145.621,150.325 143.5,150.5C 143.5,142.833 143.5,135.167 143.5,127.5 Z"/></g>
<g><path style="opacity:1" fill="#06a9f3" d="M 167.5,73.5 C 162.524,76.3111 158.691,80.3111 156,85.5C 155.254,103.57 156.088,121.57 158.5,139.5C 158.328,141.548 157.995,143.548 157.5,145.5C 157.5,146.5 157.5,147.5 157.5,148.5C 155.516,148.617 153.85,147.95 152.5,146.5C 151.859,147.993 150.859,148.993 149.5,149.5C 148.432,148.566 147.099,148.232 145.5,148.5C 145.893,143.306 146.56,138.14 147.5,133C 145.32,121.571 143.653,110.071 142.5,98.5C 142.764,93.594 143.931,88.9274 146,84.5C 147.11,82.9632 148.61,82.2965 150.5,82.5C 150.238,81.0222 150.571,79.6888 151.5,78.5C 153.188,77.4787 154.521,76.1454 155.5,74.5C 159.143,73.5094 162.809,72.5094 166.5,71.5C 167.298,71.9569 167.631,72.6236 167.5,73.5 Z"/></g>
<g><path style="opacity:1" fill="#1a1a1a" d="M 201.5,134.5 C 216.17,134.333 230.837,134.5 245.5,135C 259.067,137.399 272.734,139.232 286.5,140.5C 286.833,140.5 287.167,140.5 287.5,140.5C 289.878,141.692 291.878,143.359 293.5,145.5C 290.871,156.015 288.038,166.348 285,176.5C 284.502,179.482 284.335,182.482 284.5,185.5C 282.641,185.461 281.308,186.294 280.5,188C 277.518,188.498 274.518,188.665 271.5,188.5C 263.225,186.587 254.558,185.42 245.5,185C 219.866,183.557 194.533,184.724 169.5,188.5C 168.883,188.389 168.383,188.056 168,187.5C 166.284,180.537 164.784,173.537 163.5,166.5C 161.09,159.377 159.757,152.043 159.5,144.5C 159.414,143.504 159.748,142.671 160.5,142C 173.886,137.991 187.553,135.491 201.5,134.5 Z"/></g>
<g><path style="opacity:1" fill="#05162a" d="M 311.5,110.5 C 311.015,124.504 310.348,138.504 309.5,152.5C 308.914,152.709 308.414,153.043 308,153.5C 306.89,151.963 305.39,151.297 303.5,151.5C 303.5,150.833 303.5,150.167 303.5,149.5C 305.5,149.833 307.5,150.167 309.5,150.5C 309.333,138.829 309.5,127.162 310,115.5C 310.198,113.618 310.698,111.952 311.5,110.5 Z"/></g>
<g><path style="opacity:0.049" fill="#c0c2c4" d="M 143.5,85.5 C 142.853,87.1405 141.853,88.4739 140.5,89.5C 139.883,89.6107 139.383,89.944 139,90.5C 138.5,111.164 138.333,131.831 138.5,152.5C 133.933,152.744 129.599,153.91 125.5,156C 123.722,158.135 123.055,160.635 123.5,163.5C 128.4,162.025 133.4,161.025 138.5,160.5C 139.833,160.5 141.167,160.5 142.5,160.5C 142.817,164.702 142.483,168.702 141.5,172.5C 141.5,168.833 141.5,165.167 141.5,161.5C 135.192,162.66 128.859,163.66 122.5,164.5C 121.769,160.397 122.769,156.897 125.5,154C 129.378,152.53 133.378,151.697 137.5,151.5C 137.333,130.831 137.5,110.164 138,89.5C 139.451,87.5359 141.284,86.2026 143.5,85.5 Z"/></g>
<g><path style="opacity:0.263" fill="#cccccc" d="M 329.5,161.5 C 329.209,162.649 328.376,163.316 327,163.5C 325.93,163.472 325.097,163.139 324.5,162.5C 325.097,163.139 325.93,163.472 327,163.5C 328.376,163.316 329.209,162.649 329.5,161.5 Z"/></g>
<g><path style="opacity:0.157" fill="#d4fafb" d="M 310.5,159.5 C 311.791,159.263 312.791,159.596 313.5,160.5C 311.881,163.548 310.881,166.881 310.5,170.5C 310.5,166.833 310.5,163.167 310.5,159.5 Z"/></g>
<g><path style="opacity:1" fill="#0a2532" d="M 287.5,140.5 C 290.346,140.552 292.68,141.552 294.5,143.5C 291.442,158.178 288.275,172.845 285,187.5C 282.583,188.998 279.917,189.665 277,189.5C 274.967,189.494 273.134,189.161 271.5,188.5C 274.518,188.665 277.518,188.498 280.5,188C 281.308,186.294 282.641,185.461 284.5,185.5C 284.335,182.482 284.502,179.482 285,176.5C 288.038,166.348 290.871,156.015 293.5,145.5C 291.878,143.359 289.878,141.692 287.5,140.5 Z"/></g>
<g><path style="opacity:1" fill="#181d20" d="M 290.5,209.5 C 288.164,197.365 289.831,185.698 295.5,174.5C 297.129,173.375 298.629,172.041 300,170.5C 299.974,185.527 299.141,200.527 297.5,215.5C 295.148,213.384 292.814,211.384 290.5,209.5 Z"/></g>
<g><path style="opacity:1" fill="#0a2a39" d="M 163.5,191.5 C 161.122,186.735 159.288,181.735 158,176.5C 156.615,175.449 155.615,174.116 155,172.5C 153.875,175.478 153.375,178.645 153.5,182C 153.49,193.109 154.823,203.942 157.5,214.5C 160.073,212.358 161.906,209.692 163,206.5C 163.499,202.179 163.666,197.846 163.5,193.5C 164.87,199.072 164.703,204.739 163,210.5C 161.078,214.597 157.912,216.93 153.5,217.5C 153.802,203.964 153.135,190.631 151.5,177.5C 150.494,163.581 152.994,162.915 159,175.5C 161.012,180.702 162.512,186.035 163.5,191.5 Z"/></g>
<g><path style="opacity:1" fill="#0a2739" d="M 271.5,188.5 C 246.697,186.546 222.03,186.212 197.5,187.5C 188.105,187.415 178.771,188.082 169.5,189.5C 169.5,189.167 169.5,188.833 169.5,188.5C 194.533,184.724 219.866,183.557 245.5,185C 254.558,185.42 263.225,186.587 271.5,188.5 Z"/></g>
<g><path style="opacity:1" fill="#05a8f4" d="M 292.5,231.5 C 291.791,232.404 290.791,232.737 289.5,232.5C 269.167,232.5 248.833,232.5 228.5,232.5C 226.746,229.366 224.246,228.366 221,229.5C 220.5,229 220,228.5 219.5,228C 220.554,226.612 220.72,225.112 220,223.5C 218.478,221.978 216.978,220.478 215.5,219C 215.645,218.228 215.978,217.561 216.5,217C 215.373,215.247 214.373,213.413 213.5,211.5C 211.204,211.347 208.871,211.013 206.5,210.5C 205.685,212.276 204.518,212.943 203,212.5C 203.195,210.874 203.195,209.207 203,207.5C 199.013,202.513 194.68,197.847 190,193.5C 188.283,194.988 187.116,196.821 186.5,199C 185.517,199.591 184.85,199.257 184.5,198C 185.417,194.084 187.75,191.417 191.5,190C 196.822,189.316 202.156,188.816 207.5,188.5C 220.171,188.333 232.838,188.5 245.5,189C 246.865,190.682 248.365,190.849 250,189.5C 259.612,190.217 269.278,190.884 279,191.5C 280.226,191.355 281.393,191.022 282.5,190.5C 283.524,191.853 284.857,192.52 286.5,192.5C 285.973,198.848 286.639,205.015 288.5,211C 286.846,214.368 287.513,217.202 290.5,219.5C 292.179,217.896 294.179,217.229 296.5,217.5C 297.643,219.5 299.143,220.167 301,219.5C 302.053,203.523 302.886,187.523 303.5,171.5C 304.086,171.709 304.586,172.043 305,172.5C 305.864,166.142 303.197,164.142 297,166.5C 296.995,163.771 295.829,161.771 293.5,160.5C 295.818,159.166 297.485,159.832 298.5,162.5C 301.612,160.816 304.946,160.15 308.5,160.5C 308.986,182.24 307.986,203.906 305.5,225.5C 300.03,226.165 294.696,227.331 289.5,229C 291.167,229.333 292.833,229.667 294.5,230C 293.584,230.278 292.918,230.778 292.5,231.5 Z"/></g>
<g><path style="opacity:0.192" fill="#a0cfe7" d="M 142.5,160.5 C 143.789,182.322 144.456,204.322 144.5,226.5C 144.167,226.5 143.833,226.5 143.5,226.5C 143.5,226.167 143.5,225.833 143.5,225.5C 142.879,207.819 142.212,190.152 141.5,172.5C 142.483,168.702 142.817,164.702 142.5,160.5 Z"/></g>
<g><path style="opacity:1" fill="#062637" d="M 296.5,217.5 C 293.542,215.597 291.542,212.93 290.5,209.5C 292.814,211.384 295.148,213.384 297.5,215.5C 299.141,200.527 299.974,185.527 300,170.5C 298.629,172.041 297.129,173.375 295.5,174.5C 296.761,171.901 298.427,169.568 300.5,167.5C 301.117,184.152 301.117,200.819 300.5,217.5C 299.167,217.5 297.833,217.5 296.5,217.5 Z"/></g>
<g><path style="opacity:1" fill="#08a7f2" d="M 163.5,166.5 C 164.784,173.537 166.284,180.537 168,187.5C 168.383,188.056 168.883,188.389 169.5,188.5C 169.5,188.833 169.5,189.167 169.5,189.5C 171.265,190.461 173.265,190.795 175.5,190.5C 175.5,191.833 175.5,193.167 175.5,194.5C 174.448,194.351 173.448,194.517 172.5,195C 175.167,198 177.833,201 180.5,204C 184.617,204.549 185.284,206.216 182.5,209C 183.844,212.729 186.51,214.563 190.5,214.5C 190.5,215.5 190.5,216.5 190.5,217.5C 191.552,217.351 192.552,217.517 193.5,218C 194.833,218.667 194.833,219.333 193.5,220C 194.5,220.833 195.5,221.667 196.5,222.5C 189.833,223.167 183.167,223.833 176.5,224.5C 185.513,225.25 194.513,225.917 203.5,226.5C 203.67,227.822 203.337,228.989 202.5,230C 193.324,230.17 184.324,230.67 175.5,231.5C 169.304,232.351 163.804,231.018 159,227.5C 158.439,228.022 157.772,228.355 157,228.5C 153.924,227.236 150.757,226.236 147.5,225.5C 146.652,223.591 146.318,221.591 146.5,219.5C 149.067,219.279 151.401,218.612 153.5,217.5C 157.912,216.93 161.078,214.597 163,210.5C 164.703,204.739 164.87,199.072 163.5,193.5C 163.5,192.833 163.5,192.167 163.5,191.5C 162.512,186.035 161.012,180.702 159,175.5C 152.994,162.915 150.494,163.581 151.5,177.5C 152.023,188.646 151.357,199.646 149.5,210.5C 150.5,210.5 151.5,210.5 152.5,210.5C 152.547,215.136 150.547,216.469 146.5,214.5C 145.88,206.135 145.88,197.802 146.5,189.5C 145.724,183.519 145.057,177.519 144.5,171.5C 144.442,168.943 145.109,166.61 146.5,164.5C 147.814,165.313 148.981,166.313 150,167.5C 150.772,166.151 151.939,165.318 153.5,165C 150.441,164.942 148.108,163.609 146.5,161C 149.745,160.038 152.745,158.538 155.5,156.5C 154.05,155.15 153.383,153.484 153.5,151.5C 155.167,151.5 156.833,151.5 158.5,151.5C 158.708,153.92 158.374,156.253 157.5,158.5C 158.325,159.386 159.325,159.719 160.5,159.5C 160.5,161.833 160.5,164.167 160.5,166.5C 161.5,166.5 162.5,166.5 163.5,166.5 Z"/></g>
<g><path style="opacity:1" fill="#181b1c" d="M 163.5,191.5 C 163.5,192.167 163.5,192.833 163.5,193.5C 163.666,197.846 163.499,202.179 163,206.5C 161.906,209.692 160.073,212.358 157.5,214.5C 154.823,203.942 153.49,193.109 153.5,182C 153.375,178.645 153.875,175.478 155,172.5C 155.615,174.116 156.615,175.449 158,176.5C 159.288,181.735 161.122,186.735 163.5,191.5 Z"/></g>
<g><path style="opacity:1" fill="#1aa1e1" d="M 159.5,144.5 C 159.757,152.043 161.09,159.377 163.5,166.5C 162.5,166.5 161.5,166.5 160.5,166.5C 160.5,164.167 160.5,161.833 160.5,159.5C 159.325,159.719 158.325,159.386 157.5,158.5C 158.374,156.253 158.708,153.92 158.5,151.5C 156.833,151.5 155.167,151.5 153.5,151.5C 153.383,153.484 154.05,155.15 155.5,156.5C 152.745,158.538 149.745,160.038 146.5,161C 148.108,163.609 150.441,164.942 153.5,165C 151.939,165.318 150.772,166.151 150,167.5C 148.981,166.313 147.814,165.313 146.5,164.5C 145.109,166.61 144.442,168.943 144.5,171.5C 145.057,177.519 145.724,183.519 146.5,189.5C 145.88,197.802 145.88,206.135 146.5,214.5C 150.547,216.469 152.547,215.136 152.5,210.5C 151.5,210.5 150.5,210.5 149.5,210.5C 151.357,199.646 152.023,188.646 151.5,177.5C 153.135,190.631 153.802,203.964 153.5,217.5C 151.401,218.612 149.067,219.279 146.5,219.5C 146.318,221.591 146.652,223.591 147.5,225.5C 150.757,226.236 153.924,227.236 157,228.5C 157.772,228.355 158.439,228.022 159,227.5C 163.804,231.018 169.304,232.351 175.5,231.5C 186.167,231.5 196.833,231.5 207.5,231.5C 207.384,228.09 209.05,226.756 212.5,227.5C 212.371,229.216 212.038,230.883 211.5,232.5C 195.5,232.5 179.5,232.5 163.5,232.5C 160.673,232.416 158.006,231.75 155.5,230.5C 155.167,230.5 154.833,230.5 154.5,230.5C 151.167,229.167 147.833,227.833 144.5,226.5C 144.456,204.322 143.789,182.322 142.5,160.5C 141.167,160.5 139.833,160.5 138.5,160.5C 142.021,159.629 145.688,158.795 149.5,158C 150.605,155.88 150.605,153.713 149.5,151.5C 149.5,150.833 149.5,150.167 149.5,149.5C 150.859,148.993 151.859,147.993 152.5,146.5C 153.85,147.95 155.516,148.617 157.5,148.5C 157.5,147.5 157.5,146.5 157.5,145.5C 158.167,145.167 158.833,144.833 159.5,144.5 Z"/></g>
<g><path style="opacity:1" fill="#20adef" d="M 197.5,187.5 C 201.042,187.187 204.375,187.521 207.5,188.5C 202.156,188.816 196.822,189.316 191.5,190C 187.75,191.417 185.417,194.084 184.5,198C 184.85,199.257 185.517,199.591 186.5,199C 187.116,196.821 188.283,194.988 190,193.5C 194.68,197.847 199.013,202.513 203,207.5C 203.195,209.207 203.195,210.874 203,212.5C 204.518,212.943 205.685,212.276 206.5,210.5C 208.871,211.013 211.204,211.347 213.5,211.5C 214.373,213.413 215.373,215.247 216.5,217C 215.978,217.561 215.645,218.228 215.5,219C 216.978,220.478 218.478,221.978 220,223.5C 220.72,225.112 220.554,226.612 219.5,228C 220,228.5 220.5,229 221,229.5C 224.246,228.366 226.746,229.366 228.5,232.5C 222.914,232.122 217.247,232.122 211.5,232.5C 212.038,230.883 212.371,229.216 212.5,227.5C 209.05,226.756 207.384,228.09 207.5,231.5C 196.833,231.5 186.167,231.5 175.5,231.5C 184.324,230.67 193.324,230.17 202.5,230C 203.337,228.989 203.67,227.822 203.5,226.5C 194.513,225.917 185.513,225.25 176.5,224.5C 183.167,223.833 189.833,223.167 196.5,222.5C 195.5,221.667 194.5,220.833 193.5,220C 194.833,219.333 194.833,218.667 193.5,218C 192.552,217.517 191.552,217.351 190.5,217.5C 190.5,216.5 190.5,215.5 190.5,214.5C 186.51,214.563 183.844,212.729 182.5,209C 185.284,206.216 184.617,204.549 180.5,204C 177.833,201 175.167,198 172.5,195C 173.448,194.517 174.448,194.351 175.5,194.5C 175.5,193.167 175.5,191.833 175.5,190.5C 173.265,190.795 171.265,190.461 169.5,189.5C 178.771,188.082 188.105,187.415 197.5,187.5 Z"/></g>
<g><path style="opacity:1" fill="#51aad4" d="M 228.5,232.5 C 248.833,232.5 269.167,232.5 289.5,232.5C 289.5,232.833 289.5,233.167 289.5,233.5C 247.33,233.832 205.33,233.499 163.5,232.5C 179.5,232.5 195.5,232.5 211.5,232.5C 217.247,232.122 222.914,232.122 228.5,232.5 Z"/></g>
<g><path style="opacity:1" fill="#a2c2d0" d="M 155.5,230.5 C 158.006,231.75 160.673,232.416 163.5,232.5C 205.33,233.499 247.33,233.832 289.5,233.5C 285.702,234.483 281.702,234.817 277.5,234.5C 273.833,234.5 270.167,234.5 266.5,234.5C 260.5,234.5 254.5,234.5 248.5,234.5C 244.833,234.5 241.167,234.5 237.5,234.5C 212.167,234.5 186.833,234.5 161.5,234.5C 158.828,234.052 156.828,232.719 155.5,230.5 Z"/></g>
<g><path style="opacity:1" fill="#b8b6b3" d="M 161.5,234.5 C 186.833,234.5 212.167,234.5 237.5,234.5C 237.5,236.167 237.5,237.833 237.5,239.5C 208.833,239.5 180.167,239.5 151.5,239.5C 154.625,238.521 157.958,238.187 161.5,238.5C 161.5,237.167 161.5,235.833 161.5,234.5 Z"/></g>
<g><path style="opacity:1" fill="#593d21" d="M 151.5,239.5 C 180.167,239.5 208.833,239.5 237.5,239.5C 240.167,239.5 242.833,239.5 245.5,239.5C 245.5,270.833 245.5,302.167 245.5,333.5C 214.167,333.5 182.833,333.5 151.5,333.5C 151.5,302.167 151.5,270.833 151.5,239.5 Z"/></g>
<g><path style="opacity:1" fill="#b3b3b3" d="M 306.5,234.5 C 309.079,234.852 310.913,236.186 312,238.5C 312.537,264.696 313.037,291.029 313.5,317.5C 312.792,323.499 314.459,328.499 318.5,332.5C 318.333,332.833 318.167,333.167 318,333.5C 316.667,332.167 315.333,330.833 314,329.5C 313.5,343.163 313.333,356.829 313.5,370.5C 311.167,370.5 308.833,370.5 306.5,370.5C 306.5,325.167 306.5,279.833 306.5,234.5 Z"/></g>
<g><path style="opacity:1" fill="#b3b3b2" d="M 151.5,230.5 C 150.505,277.095 150.172,323.761 150.5,370.5C 146.833,370.5 143.167,370.5 139.5,370.5C 139.991,352.172 140.324,333.839 140.5,315.5C 140.49,303.109 139.823,290.942 138.5,279C 139.333,278.167 140.167,277.333 141,276.5C 141.333,263.833 141.667,251.167 142,238.5C 144.112,234.553 147.279,231.886 151.5,230.5 Z"/></g>
<g><path style="opacity:1" fill="#623914" d="M 152.5,240.5 C 183.167,240.5 213.833,240.5 244.5,240.5C 244.5,270.833 244.5,301.167 244.5,331.5C 213.836,332.825 183.169,332.825 152.5,331.5C 152.5,301.167 152.5,270.833 152.5,240.5 Z"/></g>
<g><path style="opacity:1" fill="#8b6139" d="M 158.5,251.5 C 170.425,262.758 182.092,274.425 193.5,286.5C 182.208,298.292 170.708,309.959 159,321.5C 158.826,303.926 158.326,286.426 157.5,269C 157.824,263.324 158.157,257.491 158.5,251.5 Z"/></g>
<g><path style="opacity:1" fill="#8b6139" d="M 237.5,252.5 C 238.995,252.415 239.995,253.081 240.5,254.5C 239.677,277.124 239.177,299.79 239,322.5C 227.04,310.706 215.207,298.706 203.5,286.5C 214.494,274.839 225.827,263.506 237.5,252.5 Z"/></g>
<g><path style="opacity:1" fill="#8b6138" d="M 163.5,245.5 C 187.176,245.167 210.843,245.5 234.5,246.5C 222.151,258.015 210.318,270.015 199,282.5C 186.719,270.476 174.886,258.142 163.5,245.5 Z"/></g>
<g><path style="opacity:1" fill="#8b6139" d="M 198.5,291.5 C 210.632,303.131 222.632,314.965 234.5,327C 210.826,327.833 187.16,327.666 163.5,326.5C 175.548,315.119 187.215,303.452 198.5,291.5 Z"/></g>
<g><path style="opacity:1" fill="#b3b3b3" d="M 295.5,370.5 C 290.968,370.182 286.634,370.515 282.5,371.5C 282.5,378.167 282.5,384.833 282.5,391.5C 282.5,408.5 282.5,425.5 282.5,442.5C 282.5,449.5 282.5,456.5 282.5,463.5C 286.833,463.5 291.167,463.5 295.5,463.5C 295.5,476.5 295.5,489.5 295.5,502.5C 299.167,502.5 302.833,502.5 306.5,502.5C 306.5,489.5 306.5,476.5 306.5,463.5C 309.5,463.5 312.5,463.5 315.5,463.5C 315.189,474.552 315.522,485.552 316.5,496.5C 315.123,498.289 314.123,500.289 313.5,502.5C 291.81,503.8 270.144,503.8 248.5,502.5C 248.5,477.5 248.5,452.5 248.5,427.5C 253.821,433.02 259.821,438.686 266.5,444.5C 266.5,463.833 266.5,483.167 266.5,502.5C 270.167,502.5 273.833,502.5 277.5,502.5C 277.5,413.167 277.5,323.833 277.5,234.5C 281.702,234.817 285.702,234.483 289.5,233.5C 291.262,233.643 292.929,233.309 294.5,232.5C 295.5,278.495 295.833,324.495 295.5,370.5 Z"/></g>
<g><path style="opacity:0.262" fill="#cacaca" d="M 143.5,225.5 C 143.5,225.833 143.5,226.167 143.5,226.5C 136.218,231.471 133.051,238.471 134,247.5C 133.216,290.497 132.716,333.497 132.5,376.5C 131.5,376.833 130.833,377.5 130.5,378.5C 129.337,404.33 129.17,430.33 130,456.5C 130.383,457.056 130.883,457.389 131.5,457.5C 131.047,473.238 131.547,488.904 133,504.5C 134.543,506.378 136.376,507.878 138.5,509C 145.441,508.929 152.108,509.763 158.5,511.5C 158.944,513.113 159.944,514.28 161.5,515C 205.179,515.79 248.845,515.623 292.5,514.5C 290.369,515.314 288.036,515.814 285.5,516C 243.833,516.667 202.167,516.667 160.5,516C 158.5,515.333 157.167,514 156.5,512C 150.103,511.818 143.77,511.152 137.5,510C 135.04,508.542 132.873,506.709 131,504.5C 130.79,475.407 129.957,446.407 128.5,417.5C 128.667,404.167 128.833,390.833 129,377.5C 129.419,376.328 130.085,375.328 131,374.5C 131.61,329.832 132.276,285.166 133,240.5C 133.559,233.363 137.059,228.363 143.5,225.5 Z"/></g>
<g><path style="opacity:1" fill="#cccccc" d="M 266.5,234.5 C 270.167,234.5 273.833,234.5 277.5,234.5C 277.5,323.833 277.5,413.167 277.5,502.5C 273.833,502.5 270.167,502.5 266.5,502.5C 266.5,483.167 266.5,463.833 266.5,444.5C 266.5,374.5 266.5,304.5 266.5,234.5 Z"/></g>
<g><path style="opacity:1" fill="#cbcbcb" d="M 299.5,230.5 C 301.964,231.567 304.297,232.9 306.5,234.5C 306.5,279.833 306.5,325.167 306.5,370.5C 302.833,370.5 299.167,370.5 295.5,370.5C 295.833,324.495 295.5,278.495 294.5,232.5C 292.929,233.309 291.262,233.643 289.5,233.5C 289.5,233.167 289.5,232.833 289.5,232.5C 290.791,232.737 291.791,232.404 292.5,231.5C 294.806,231.007 297.139,230.674 299.5,230.5 Z"/></g>
<g><path style="opacity:0.996" fill="#999999" d="M 143.5,226.5 C 143.833,226.5 144.167,226.5 144.5,226.5C 147.833,227.833 151.167,229.167 154.5,230.5C 153.5,230.5 152.5,230.5 151.5,230.5C 147.279,231.886 144.112,234.553 142,238.5C 141.667,251.167 141.333,263.833 141,276.5C 140.167,277.333 139.333,278.167 138.5,279C 139.823,290.942 140.49,303.109 140.5,315.5C 140.324,333.839 139.991,352.172 139.5,370.5C 143.167,370.5 146.833,370.5 150.5,370.5C 154.167,370.5 157.833,370.5 161.5,370.5C 165.167,370.5 168.833,370.5 172.5,370.5C 172.831,401.671 172.498,432.671 171.5,463.5C 171.5,456.5 171.5,449.5 171.5,442.5C 161.161,442.334 150.828,442.5 140.5,443C 140,443.5 139.5,444 139,444.5C 138.5,450.825 138.334,457.158 138.5,463.5C 138.666,473.517 138.333,483.517 137.5,493.5C 137.851,496.622 138.518,499.622 139.5,502.5C 144.453,503.329 149.453,503.663 154.5,503.5C 155.932,505.327 157.599,506.994 159.5,508.5C 159.137,509.183 158.804,509.85 158.5,510.5C 158.5,510.833 158.5,511.167 158.5,511.5C 152.108,509.763 145.441,508.929 138.5,509C 136.376,507.878 134.543,506.378 133,504.5C 131.547,488.904 131.047,473.238 131.5,457.5C 131.5,455.5 131.5,453.5 131.5,451.5C 131.663,426.497 131.996,401.497 132.5,376.5C 132.716,333.497 133.216,290.497 134,247.5C 133.051,238.471 136.218,231.471 143.5,226.5 Z"/></g>
<g><path style="opacity:1" fill="#b3b3b3" d="M 248.5,234.5 C 254.5,234.5 260.5,234.5 266.5,234.5C 266.5,304.5 266.5,374.5 266.5,444.5C 259.821,438.686 253.821,433.02 248.5,427.5C 248.5,363.167 248.5,298.833 248.5,234.5 Z"/></g>
<g><path style="opacity:0.996" fill="#9b9b9b" d="M 309.5,227.5 C 314.115,228.948 317.282,231.948 319,236.5C 319.845,283.573 321.011,330.573 322.5,377.5C 321.337,401.663 321.17,425.997 322,450.5C 322.191,452.708 322.691,454.708 323.5,456.5C 323.224,470.757 323.057,485.091 323,499.5C 321.534,505.137 318.034,508.47 312.5,509.5C 306.833,509.5 301.167,509.5 295.5,509.5C 249.791,509.177 204.124,509.51 158.5,510.5C 158.804,509.85 159.137,509.183 159.5,508.5C 157.599,506.994 155.932,505.327 154.5,503.5C 186.004,503.832 217.338,503.498 248.5,502.5C 270.144,503.8 291.81,503.8 313.5,502.5C 314.123,500.289 315.123,498.289 316.5,496.5C 315.522,485.552 315.189,474.552 315.5,463.5C 315.5,456.5 315.5,449.5 315.5,442.5C 304.5,442.5 293.5,442.5 282.5,442.5C 282.5,425.5 282.5,408.5 282.5,391.5C 292.833,391.5 303.167,391.5 313.5,391.5C 313.5,384.833 313.5,378.167 313.5,371.5C 303.167,371.5 292.833,371.5 282.5,371.5C 286.634,370.515 290.968,370.182 295.5,370.5C 299.167,370.5 302.833,370.5 306.5,370.5C 308.833,370.5 311.167,370.5 313.5,370.5C 313.333,356.829 313.5,343.163 314,329.5C 315.333,330.833 316.667,332.167 318,333.5C 318.167,333.167 318.333,332.833 318.5,332.5C 314.459,328.499 312.792,323.499 313.5,317.5C 313.037,291.029 312.537,264.696 312,238.5C 310.913,236.186 309.079,234.852 306.5,234.5C 304.297,232.9 301.964,231.567 299.5,230.5C 302.583,228.975 305.916,227.975 309.5,227.5 Z"/></g>
<g><path style="opacity:1" fill="#8b7a69" d="M 245.5,239.5 C 246.498,270.996 246.832,302.662 246.5,334.5C 243.5,334.5 240.5,334.5 237.5,334.5C 231.5,334.5 225.5,334.5 219.5,334.5C 215.833,334.5 212.167,334.5 208.5,334.5C 202.5,334.5 196.5,334.5 190.5,334.5C 186.833,334.5 183.167,334.5 179.5,334.5C 173.5,334.5 167.5,334.5 161.5,334.5C 157.958,334.813 154.625,334.479 151.5,333.5C 182.833,333.5 214.167,333.5 245.5,333.5C 245.5,302.167 245.5,270.833 245.5,239.5 Z"/></g>
<g><path style="opacity:1" fill="#cdcbc9" d="M 151.5,230.5 C 152.5,230.5 153.5,230.5 154.5,230.5C 154.833,230.5 155.167,230.5 155.5,230.5C 156.828,232.719 158.828,234.052 161.5,234.5C 161.5,235.833 161.5,237.167 161.5,238.5C 157.958,238.187 154.625,238.521 151.5,239.5C 151.5,270.833 151.5,302.167 151.5,333.5C 154.625,334.479 157.958,334.813 161.5,334.5C 161.5,346.5 161.5,358.5 161.5,370.5C 157.833,370.5 154.167,370.5 150.5,370.5C 150.172,323.761 150.505,277.095 151.5,230.5 Z"/></g>
<g><path style="opacity:1" fill="#b3b3b3" d="M 161.5,334.5 C 167.5,334.5 173.5,334.5 179.5,334.5C 179.667,348.171 179.5,361.837 179,375.5C 175.667,378.833 175.667,382.167 179,385.5C 179.5,424.499 179.667,463.499 179.5,502.5C 183.167,502.5 186.833,502.5 190.5,502.5C 190.333,467.498 190.5,432.498 191,397.5C 194.86,401.36 198.694,405.194 202.5,409C 204.387,409.78 206.054,409.613 207.5,408.5C 208.498,439.662 208.832,470.996 208.5,502.5C 212.167,502.5 215.833,502.5 219.5,502.5C 219.333,467.498 219.5,432.498 220,397.5C 223.3,395.443 223.133,394.443 219.5,394.5C 219.212,388.558 220.045,388.225 222,393.5C 222.576,391.623 222.409,389.789 221.5,388C 224.619,383.612 224.119,379.778 220,376.5C 219.5,362.504 219.333,348.504 219.5,334.5C 225.5,334.5 231.5,334.5 237.5,334.5C 237.5,390.5 237.5,446.5 237.5,502.5C 241.167,502.5 244.833,502.5 248.5,502.5C 217.338,503.498 186.004,503.832 154.5,503.5C 149.453,503.663 144.453,503.329 139.5,502.5C 138.518,499.622 137.851,496.622 137.5,493.5C 138.333,483.517 138.666,473.517 138.5,463.5C 142.5,463.5 146.5,463.5 150.5,463.5C 150.5,476.5 150.5,489.5 150.5,502.5C 154.167,502.5 157.833,502.5 161.5,502.5C 161.5,489.5 161.5,476.5 161.5,463.5C 164.833,463.5 168.167,463.5 171.5,463.5C 172.498,432.671 172.831,401.671 172.5,370.5C 168.833,370.5 165.167,370.5 161.5,370.5C 161.5,358.5 161.5,346.5 161.5,334.5 Z"/></g>
<g><path style="opacity:1" fill="#cccbcb" d="M 237.5,234.5 C 241.167,234.5 244.833,234.5 248.5,234.5C 248.5,298.833 248.5,363.167 248.5,427.5C 248.5,452.5 248.5,477.5 248.5,502.5C 244.833,502.5 241.167,502.5 237.5,502.5C 237.5,446.5 237.5,390.5 237.5,334.5C 240.5,334.5 243.5,334.5 246.5,334.5C 246.832,302.662 246.498,270.996 245.5,239.5C 242.833,239.5 240.167,239.5 237.5,239.5C 237.5,237.833 237.5,236.167 237.5,234.5 Z"/></g>
<g><path style="opacity:1" fill="#808080" d="M 139.5,371.5 C 150.167,371.5 160.833,371.5 171.5,371.5C 171.5,378.167 171.5,384.833 171.5,391.5C 160.833,391.5 150.167,391.5 139.5,391.5C 139.5,384.833 139.5,378.167 139.5,371.5 Z"/></g>
<g><path style="opacity:1" fill="#808080" d="M 282.5,371.5 C 292.833,371.5 303.167,371.5 313.5,371.5C 313.5,378.167 313.5,384.833 313.5,391.5C 303.167,391.5 292.833,391.5 282.5,391.5C 282.5,384.833 282.5,378.167 282.5,371.5 Z"/></g>
<g><path style="opacity:0.79" fill="#464646" d="M 322.5,377.5 C 323.222,377.918 323.722,378.584 324,379.5C 324.823,405.239 324.657,430.906 323.5,456.5C 322.691,454.708 322.191,452.708 322,450.5C 321.17,425.997 321.337,401.663 322.5,377.5 Z"/></g>
<g><path style="opacity:0.585" fill="#4b4b4b" d="M 130.5,378.5 C 130.169,403.006 130.502,427.339 131.5,451.5C 131.5,453.5 131.5,455.5 131.5,457.5C 130.883,457.389 130.383,457.056 130,456.5C 129.17,430.33 129.337,404.33 130.5,378.5 Z"/></g>
<g><path style="opacity:1" fill="#cbcbcb" d="M 179.5,334.5 C 183.167,334.5 186.833,334.5 190.5,334.5C 190.5,344.167 190.5,353.833 190.5,363.5C 194.868,363.63 199.202,363.297 203.5,362.5C 205.374,362.39 206.874,363.056 208,364.5C 208.5,354.506 208.666,344.506 208.5,334.5C 212.167,334.5 215.833,334.5 219.5,334.5C 219.333,348.504 219.5,362.504 220,376.5C 224.119,379.778 224.619,383.612 221.5,388C 222.409,389.789 222.576,391.623 222,393.5C 220.045,388.225 219.212,388.558 219.5,394.5C 223.133,394.443 223.3,395.443 220,397.5C 219.5,432.498 219.333,467.498 219.5,502.5C 215.833,502.5 212.167,502.5 208.5,502.5C 208.832,470.996 208.498,439.662 207.5,408.5C 206.054,409.613 204.387,409.78 202.5,409C 198.694,405.194 194.86,401.36 191,397.5C 190.5,432.498 190.333,467.498 190.5,502.5C 186.833,502.5 183.167,502.5 179.5,502.5C 179.667,463.499 179.5,424.499 179,385.5C 175.667,382.167 175.667,378.833 179,375.5C 179.5,361.837 179.667,348.171 179.5,334.5 Z"/></g>
<g><path style="opacity:1" fill="#b2b2b2" d="M 207.5,408.5 C 204.901,408.451 202.734,407.451 201,405.5C 200.744,402.443 200.244,399.443 199.5,396.5C 196.146,393.979 193.312,390.979 191,387.5C 190.5,380.174 190.334,372.841 190.5,365.5C 193.066,365.344 195.566,365.678 198,366.5C 201.385,363.929 204.719,363.929 208,366.5C 208.667,370.167 208.667,373.833 208,377.5C 203.643,373.446 199.477,373.779 195.5,378.5C 193.357,389.528 197.523,393.195 208,389.5C 208.193,394.75 208.693,399.917 209.5,405C 208.695,406.113 208.028,407.279 207.5,408.5 Z"/></g>
<g><path style="opacity:1" fill="#b3b3b2" d="M 190.5,334.5 C 196.5,334.5 202.5,334.5 208.5,334.5C 208.666,344.506 208.5,354.506 208,364.5C 206.874,363.056 205.374,362.39 203.5,362.5C 199.202,363.297 194.868,363.63 190.5,363.5C 190.5,353.833 190.5,344.167 190.5,334.5 Z"/></g>
<g><path style="opacity:1" fill="#272727" d="M 132.5,376.5 C 131.996,401.497 131.663,426.497 131.5,451.5C 130.502,427.339 130.169,403.006 130.5,378.5C 130.833,377.5 131.5,376.833 132.5,376.5 Z"/></g>
<g><path style="opacity:1" fill="#808080" d="M 171.5,463.5 C 168.167,463.5 164.833,463.5 161.5,463.5C 157.833,463.5 154.167,463.5 150.5,463.5C 146.5,463.5 142.5,463.5 138.5,463.5C 138.334,457.158 138.5,450.825 139,444.5C 139.5,444 140,443.5 140.5,443C 150.828,442.5 161.161,442.334 171.5,442.5C 171.5,449.5 171.5,456.5 171.5,463.5 Z"/></g>
<g><path style="opacity:1" fill="#818181" d="M 282.5,442.5 C 293.5,442.5 304.5,442.5 315.5,442.5C 315.5,449.5 315.5,456.5 315.5,463.5C 312.5,463.5 309.5,463.5 306.5,463.5C 302.833,463.5 299.167,463.5 295.5,463.5C 291.167,463.5 286.833,463.5 282.5,463.5C 282.5,456.5 282.5,449.5 282.5,442.5 Z"/></g>
<g><path style="opacity:1" fill="#cbcbcb" d="M 150.5,463.5 C 154.167,463.5 157.833,463.5 161.5,463.5C 161.5,476.5 161.5,489.5 161.5,502.5C 157.833,502.5 154.167,502.5 150.5,502.5C 150.5,489.5 150.5,476.5 150.5,463.5 Z"/></g>
<g><path style="opacity:1" fill="#cbcbcb" d="M 295.5,463.5 C 299.167,463.5 302.833,463.5 306.5,463.5C 306.5,476.5 306.5,489.5 306.5,502.5C 302.833,502.5 299.167,502.5 295.5,502.5C 295.5,489.5 295.5,476.5 295.5,463.5 Z"/></g>
<g><path style="opacity:0.155" fill="#f8f8f8" d="M 295.5,509.5 C 301.167,509.5 306.833,509.5 312.5,509.5C 306.934,510.207 301.268,510.874 295.5,511.5C 295.5,510.833 295.5,510.167 295.5,509.5 Z"/></g>
<g><path style="opacity:0.573" fill="#878789" d="M 295.5,509.5 C 295.5,510.167 295.5,510.833 295.5,511.5C 295.5,513.5 294.5,514.5 292.5,514.5C 248.845,515.623 205.179,515.79 161.5,515C 159.944,514.28 158.944,513.113 158.5,511.5C 158.5,511.167 158.5,510.833 158.5,510.5C 204.124,509.51 249.791,509.177 295.5,509.5 Z"/></g>
</svg>
