<svg id="wave" style="transform:rotate(0deg); transition: 0.3s" viewBox="0 0 1440 490" version="1.1" xmlns="http://www.w3.org/2000/svg"><defs><linearGradient id="sw-gradient-0" x1="0" x2="0" y1="1" y2="0"><stop stop-color="rgba(25, 118, 210, 1)" offset="0%"></stop><stop stop-color="rgba(40.144, 105.965, 171.079, 1)" offset="100%"></stop></linearGradient></defs><path style="transform:translate(0, 0px); opacity:1" fill="url(#sw-gradient-0)" d="M0,0L80,49C160,98,320,196,480,196C640,196,800,98,960,98C1120,98,1280,196,1440,253.2C1600,310,1760,327,1920,326.7C2080,327,2240,310,2400,285.8C2560,261,2720,229,2880,196C3040,163,3200,131,3360,171.5C3520,212,3680,327,3840,343C4000,359,4160,278,4320,269.5C4480,261,4640,327,4800,318.5C4960,310,5120,229,5280,179.7C5440,131,5600,114,5760,106.2C5920,98,6080,98,6240,155.2C6400,212,6560,327,6720,318.5C6880,310,7040,180,7200,147C7360,114,7520,180,7680,204.2C7840,229,8000,212,8160,245C8320,278,8480,359,8640,367.5C8800,376,8960,310,9120,236.8C9280,163,9440,82,9600,89.8C9760,98,9920,196,10080,196C10240,196,10400,98,10560,89.8C10720,82,10880,163,11040,236.8C11200,310,11360,376,11440,408.3L11520,441L11520,490L11440,490C11360,490,11200,490,11040,490C10880,490,10720,490,10560,490C10400,490,10240,490,10080,490C9920,490,9760,490,9600,490C9440,490,9280,490,9120,490C8960,490,8800,490,8640,490C8480,490,8320,490,8160,490C8000,490,7840,490,7680,490C7520,490,7360,490,7200,490C7040,490,6880,490,6720,490C6560,490,6400,490,6240,490C6080,490,5920,490,5760,490C5600,490,5440,490,5280,490C5120,490,4960,490,4800,490C4640,490,4480,490,4320,490C4160,490,4000,490,3840,490C3680,490,3520,490,3360,490C3200,490,3040,490,2880,490C2720,490,2560,490,2400,490C2240,490,2080,490,1920,490C1760,490,1600,490,1440,490C1280,490,1120,490,960,490C800,490,640,490,480,490C320,490,160,490,80,490L0,490Z"></path></svg>